<svg xmlns="http://www.w3.org/2000/svg" viewBox="25 171.816 597.8699926757813 231.36875152587893"> <svg xmlns="http://www.w3.org/2000/svg" xmlns:xlink="http://www.w3.org/1999/xlink" version="1.1" id="2222_1" x="95" y="241.816" viewBox="194.30001831054688 236.57000732421875 411.4100036621094 326.8699951171875" xml:space="preserve" height="91.3687515258789" width="115" preserveAspectRatio="xMinYMin" enable-background="new 0 0 800 800" style="overflow: visible;"><path d="M503.74,539.12c0,2.35-1.91,4.26-4.26,4.26H218.56c-2.35,0-4.26-1.91-4.26-4.26V324.66c0-2.35,1.91-4.26,4.26-4.26h57.7   v-20h-57.7c-13.38,0-24.26,10.88-24.26,24.26v214.46c0,13.38,10.88,24.26,24.26,24.26h280.92c13.38,0,24.26-10.88,24.26-24.26   v-39.57h-20V539.12z" style="fill: #e21b7c; fill-opacity: 1;"></path><path d="M581.44,236.57H300.52c-13.4,0-24.26,10.86-24.26,24.26v39.57v20v154.9c0,13.4,10.86,24.26,24.26,24.26h203.22h20h26.01   l26.3,56.61l0.65,0.86c3.11,4.12,7.91,6.41,12.87,6.41c2.38,0,4.8-0.53,7.09-1.64c5.65-2.74,9.05-8.67,9.05-14.95v-71.55v-25.62   V260.83C605.71,247.43,594.84,236.57,581.44,236.57z M585.71,449.67v25.62v13.61v10.27v30.22l-13.88-29.83l-4.65-10l-2.15-4.62   c-1.53-3.28-4.82-5.38-8.44-5.38h-32.84h-20H300.52c-2.35,0-4.26-1.91-4.26-4.26V320.4v-20v-39.57c0-2.35,1.91-4.26,4.26-4.26   h280.92c2.35,0,4.26,1.91,4.26,4.26V449.67z" style="fill: #e21b7c; fill-opacity: 1;"></path><circle cx="379.89" cy="329" r="14.64" style="fill: #e21b7c; fill-opacity: 1;"></circle><circle cx="502.65" cy="329" r="14.64" style="fill: #e21b7c; fill-opacity: 1;"></circle><path d="M492.2,370.13v2c0,28.24-22.98,51.22-51.22,51.22c-28.24,0-51.22-22.98-51.22-51.22v-2l-20.75,0v2   c0,39.69,32.29,71.98,71.98,71.98s71.98-32.29,71.98-71.98v-2L492.2,370.13z" style="fill: #e21b7c; fill-opacity: 1;"></path></svg> <svg x="236.19" y="257.77999950408935" viewBox="1.1200000047683716 7.239999771118164 316.67999267578125 31.96000099182129" height="31.96000099182129" width="316.67999267578125" style="overflow: visible;"><g fill="#000" style=""><path d="M12.52 39.20L12.52 39.20Q9.16 39.20 6.08 38.30Q3 37.40 1.12 35.96L1.12 35.96L3.32 31.08Q5.12 32.36 7.58 33.18Q10.04 34 12.56 34L12.56 34Q14.48 34 15.66 33.62Q16.84 33.24 17.40 32.56Q17.96 31.88 17.96 31L17.96 31Q17.96 29.88 17.08 29.22Q16.20 28.56 14.76 28.14Q13.32 27.72 11.58 27.34Q9.84 26.96 8.10 26.40Q6.36 25.84 4.92 24.96Q3.48 24.08 2.58 22.64Q1.68 21.20 1.68 18.96L1.68 18.96Q1.68 16.56 2.98 14.58Q4.28 12.60 6.90 11.42Q9.52 10.24 13.48 10.24L13.48 10.24Q16.12 10.24 18.68 10.86Q21.24 11.48 23.20 12.72L23.20 12.72L21.20 17.64Q19.24 16.52 17.28 15.98Q15.32 15.44 13.44 15.44L13.44 15.44Q11.56 15.44 10.36 15.88Q9.16 16.32 8.64 17.02Q8.12 17.72 8.12 18.64L8.12 18.64Q8.12 19.72 9 20.38Q9.88 21.04 11.32 21.44Q12.76 21.84 14.50 22.24Q16.24 22.64 17.98 23.16Q19.72 23.68 21.16 24.56Q22.60 25.44 23.50 26.88Q24.40 28.32 24.40 30.52L24.40 30.52Q24.40 32.88 23.08 34.84Q21.76 36.80 19.14 38Q16.52 39.20 12.52 39.20ZM38.64 39.04L38.64 39.04Q35.20 39.04 32.54 37.60Q29.88 36.16 28.34 33.66Q26.80 31.16 26.80 27.96L26.80 27.96Q26.80 24.72 28.34 22.22Q29.88 19.72 32.54 18.30Q35.20 16.88 38.64 16.88L38.64 16.88Q42.04 16.88 44.72 18.30Q47.40 19.72 48.92 22.20Q50.44 24.68 50.44 27.96L50.44 27.96Q50.44 31.16 48.92 33.66Q47.40 36.16 44.72 37.60Q42.04 39.04 38.64 39.04ZM38.64 33.92L38.64 33.92Q40.20 33.92 41.44 33.20Q42.68 32.48 43.40 31.14Q44.12 29.80 44.12 27.96L44.12 27.96Q44.12 26.08 43.40 24.76Q42.68 23.44 41.44 22.72Q40.20 22 38.64 22L38.64 22Q37.08 22 35.84 22.72Q34.60 23.44 33.86 24.76Q33.12 26.08 33.12 27.96L33.12 27.96Q33.12 29.80 33.86 31.14Q34.60 32.48 35.84 33.20Q37.08 33.92 38.64 33.92ZM65 39.04L65 39.04Q61.52 39.04 58.80 37.62Q56.08 36.20 54.54 33.68Q53 31.16 53 27.96L53 27.96Q53 24.72 54.54 22.22Q56.08 19.72 58.80 18.30Q61.52 16.88 65 16.88L65 16.88Q68.40 16.88 70.92 18.30Q73.44 19.72 74.64 22.36L74.64 22.36L69.80 24.96Q68.96 23.44 67.70 22.72Q66.44 22 64.96 22L64.96 22Q63.36 22 62.08 22.72Q60.80 23.44 60.06 24.76Q59.32 26.08 59.32 27.96L59.32 27.96Q59.32 29.84 60.06 31.16Q60.80 32.48 62.08 33.20Q63.36 33.92 64.96 33.92L64.96 33.92Q66.44 33.92 67.70 33.22Q68.96 32.52 69.80 30.96L69.80 30.96L74.64 33.60Q73.44 36.20 70.92 37.62Q68.40 39.04 65 39.04ZM84.48 38.72L78.24 38.72L78.24 17.20L84.48 17.20L84.48 38.72ZM81.36 14.20L81.36 14.20Q79.64 14.20 78.56 13.20Q77.48 12.20 77.48 10.72L77.48 10.72Q77.48 9.24 78.56 8.24Q79.64 7.24 81.36 7.24L81.36 7.24Q83.08 7.24 84.16 8.18Q85.24 9.12 85.24 10.60L85.24 10.60Q85.24 12.16 84.18 13.18Q83.12 14.20 81.36 14.20ZM109.32 38.72L103.48 38.72L103.48 34.52L103.08 33.60L103.08 26.08Q103.08 24.08 101.86 22.96Q100.64 21.84 98.12 21.84L98.12 21.84Q96.40 21.84 94.74 22.38Q93.08 22.92 91.92 23.84L91.92 23.84L89.68 19.48Q91.44 18.24 93.92 17.56Q96.40 16.88 98.96 16.88L98.96 16.88Q103.88 16.88 106.60 19.20Q109.32 21.52 109.32 26.44L109.32 26.44L109.32 38.72ZM96.92 39.04L96.92 39.04Q94.40 39.04 92.60 38.18Q90.80 37.32 89.84 35.84Q88.88 34.36 88.88 32.52L88.88 32.52Q88.88 30.60 89.82 29.16Q90.76 27.72 92.80 26.90Q94.84 26.08 98.12 26.08L98.12 26.08L103.84 26.08L103.84 29.72L98.80 29.72Q96.60 29.72 95.78 30.44Q94.96 31.16 94.96 32.24L94.96 32.24Q94.96 33.44 95.90 34.14Q96.84 34.84 98.48 34.84L98.48 34.84Q100.04 34.84 101.28 34.10Q102.52 33.36 103.08 31.92L103.08 31.92L104.04 34.80Q103.36 36.88 101.56 37.96Q99.76 39.04 96.92 39.04ZM121.20 38.72L114.96 38.72L114.96 9.04L121.20 9.04L121.20 38.72ZM145.16 38.72L138.76 38.72L138.76 10.72L144.12 10.72L160.64 30.88L158.04 30.88L158.04 10.72L164.44 10.72L164.44 38.72L159.12 38.72L142.56 18.56L145.16 18.56L145.16 38.72ZM181.32 39.04L181.32 39.04Q177.64 39.04 174.86 37.60Q172.08 36.16 170.56 33.66Q169.04 31.16 169.04 27.96L169.04 27.96Q169.04 24.72 170.54 22.22Q172.04 19.72 174.64 18.30Q177.24 16.88 180.52 16.88L180.52 16.88Q183.68 16.88 186.22 18.22Q188.76 19.56 190.24 22.06Q191.72 24.56 191.72 28.04L191.72 28.04Q191.72 28.40 191.68 28.86Q191.64 29.32 191.60 29.72L191.60 29.72L174.12 29.72L174.12 26.08L188.32 26.08L185.92 27.16Q185.92 25.48 185.24 24.24Q184.56 23 183.36 22.30Q182.16 21.60 180.56 21.60L180.56 21.60Q178.96 21.60 177.74 22.30Q176.52 23 175.84 24.26Q175.16 25.52 175.16 27.24L175.16 27.24L175.16 28.20Q175.16 29.96 175.94 31.30Q176.72 32.64 178.14 33.34Q179.56 34.04 181.48 34.04L181.48 34.04Q183.20 34.04 184.50 33.52Q185.80 33 186.88 31.96L186.88 31.96L190.20 35.56Q188.72 37.24 186.48 38.14Q184.24 39.04 181.32 39.04ZM204.68 39.04L204.68 39.04Q200.88 39.04 198.76 37.10Q196.64 35.16 196.64 31.32L196.64 31.32L196.64 12.44L202.88 12.44L202.88 31.24Q202.88 32.60 203.60 33.34Q204.32 34.08 205.56 34.08L205.56 34.08Q207.04 34.08 208.08 33.28L208.08 33.28L209.76 37.68Q208.80 38.36 207.46 38.70Q206.12 39.04 204.68 39.04ZM208.24 22.48L193.32 22.48L193.32 17.68L208.24 17.68L208.24 22.48ZM224.20 38.72L218.20 38.72L210.44 17.20L216.32 17.20L222.76 35.72L219.96 35.72L226.68 17.20L231.96 17.20L238.48 35.72L235.68 35.72L242.32 17.20L247.84 17.20L240.04 38.72L234.00 38.72L228.28 22.84L230.12 22.84L224.20 38.72ZM261.00 39.04L261.00 39.04Q257.56 39.04 254.90 37.60Q252.24 36.16 250.70 33.66Q249.16 31.16 249.16 27.96L249.16 27.96Q249.16 24.72 250.70 22.22Q252.24 19.72 254.90 18.30Q257.56 16.88 261.00 16.88L261.00 16.88Q264.40 16.88 267.08 18.30Q269.76 19.72 271.28 22.20Q272.80 24.68 272.80 27.96L272.80 27.96Q272.80 31.16 271.28 33.66Q269.76 36.16 267.08 37.60Q264.40 39.04 261.00 39.04ZM261.00 33.92L261.00 33.92Q262.56 33.92 263.80 33.20Q265.04 32.48 265.76 31.14Q266.48 29.80 266.48 27.96L266.48 27.96Q266.48 26.08 265.76 24.76Q265.04 23.44 263.80 22.72Q262.56 22 261.00 22L261.00 22Q259.44 22 258.20 22.72Q256.96 23.44 256.22 24.76Q255.48 26.08 255.48 27.96L255.48 27.96Q255.48 29.80 256.22 31.14Q256.96 32.48 258.20 33.20Q259.44 33.92 261.00 33.92ZM283.20 38.72L276.96 38.72L276.96 17.20L282.92 17.20L282.92 23.28L282.08 21.52Q283.04 19.24 285.16 18.06Q287.28 16.88 290.32 16.88L290.32 16.88L290.32 22.64Q289.92 22.60 289.60 22.58Q289.28 22.56 288.92 22.56L288.92 22.56Q286.36 22.56 284.78 24.02Q283.20 25.48 283.20 28.56L283.20 28.56L283.20 38.72ZM304.12 29.64L299.36 34.32L299.52 26.72L309.56 17.20L317.00 17.20L307.36 27L304.12 29.64ZM300.44 38.72L294.20 38.72L294.20 9.04L300.44 9.04L300.44 38.72ZM317.80 38.72L310.24 38.72L302.96 29.68L306.88 24.84L317.80 38.72Z" transform="translate(0, 0)"></path></g></svg></svg>